<?xml version="1.0" standalone="no"?>
<!DOCTYPE svg PUBLIC "-//W3C//DTD SVG 20010904//EN"
 "http://www.w3.org/TR/2001/REC-SVG-20010904/DTD/svg10.dtd">
<svg version="1.0" xmlns="http://www.w3.org/2000/svg"
 width="512.000000pt" height="512.000000pt" viewBox="0 0 512.000000 512.000000"
 preserveAspectRatio="xMidYMid meet">
<metadata>
Created by potrace 1.14, written by Peter Selinger 2001-2017
</metadata>
<g transform="translate(0.000000,512.000000) scale(0.100000,-0.100000)"
fill="#000000" stroke="none">
<path d="M1203 4977 c1 -7 -13 -12 -35 -13 -21 0 -49 -6 -62 -13 -20 -11 -23
-20 -22 -58 1 -26 -3 -47 -9 -50 -7 -2 -12 -27 -13 -60 0 -31 -4 -58 -9 -62
-5 -3 -10 -26 -10 -50 -1 -24 -5 -46 -10 -50 -6 -3 -9 -16 -8 -28 1 -12 -5
-25 -13 -28 -8 -3 -12 -13 -9 -25 3 -10 -1 -24 -7 -30 -7 -5 -12 -24 -10 -42
1 -18 -4 -43 -12 -55 -8 -13 -12 -23 -8 -23 4 0 1 -7 -6 -15 -11 -13 -15 -13
-21 -3 -9 14 -11 7 -13 -67 -1 -22 2 -45 7 -52 5 -7 4 -21 -3 -33 -6 -12 -10
-26 -7 -33 2 -6 -6 -20 -19 -29 -12 -10 -21 -26 -19 -36 1 -9 -2 -23 -8 -30
-6 -8 -11 -28 -12 -45 0 -18 -4 -37 -7 -43 -4 -6 -9 -22 -12 -36 -2 -15 -9
-36 -16 -47 -9 -17 -8 -22 4 -27 10 -4 14 -15 12 -27 -3 -12 -5 -26 -5 -31 -1
-6 -8 -1 -16 10 -11 15 -15 16 -15 4 -1 -8 -3 -28 -4 -44 -1 -16 -7 -31 -14
-34 -7 -2 -9 -8 -6 -14 4 -6 1 -14 -6 -18 -17 -10 -17 -100 0 -110 7 -5 8 -10
2 -14 -5 -3 -13 2 -17 12 -7 16 -8 15 -15 -3 -4 -13 -2 -24 8 -31 13 -9 13
-14 -2 -36 -9 -13 -13 -28 -10 -31 4 -4 -1 -9 -10 -13 -16 -6 -16 -8 0 -32 12
-18 14 -27 5 -30 -6 -2 -9 -7 -6 -12 3 -4 -8 -13 -24 -19 -22 -10 -28 -18 -25
-38 1 -14 8 -29 14 -33 6 -4 8 -15 4 -25 -7 -18 -8 -18 -14 1 -7 18 -7 18 -18
-3 -10 -17 -9 -25 4 -37 8 -9 11 -16 5 -16 -6 0 -11 -7 -11 -15 0 -8 5 -15 11
-15 8 0 8 -4 1 -12 -5 -7 -12 -24 -14 -38 -1 -14 -7 -28 -11 -31 -5 -3 -9 -20
-9 -38 -1 -28 -18 -58 -18 -32 0 6 -8 11 -17 11 -15 0 -16 -2 -3 -10 9 -6 11
-10 3 -10 -7 0 -10 -6 -7 -14 3 -7 -3 -21 -12 -31 -15 -14 -15 -18 -3 -26 9
-6 15 -4 17 6 2 9 7 13 12 10 5 -3 2 -19 -7 -35 -8 -17 -18 -28 -23 -25 -5 3
-14 -4 -20 -15 -9 -16 -8 -20 5 -20 15 0 16 -32 2 -46 -4 -4 -7 -18 -7 -31 0
-21 -10 -28 -32 -24 -5 0 -8 -15 -8 -35 0 -21 4 -33 10 -29 5 3 10 2 10 -4 0
-5 -5 -13 -10 -16 -6 -3 -10 -26 -10 -51 0 -41 -6 -49 -32 -45 -5 0 -8 -8 -8
-19 0 -11 5 -20 10 -20 6 0 10 -9 10 -20 0 -11 -4 -20 -10 -20 -5 0 -10 -23
-10 -51 0 -32 -4 -48 -10 -44 -13 8 -8 -18 5 -27 5 -4 0 -15 -12 -25 -12 -11
-23 -32 -25 -48 -1 -17 -8 -29 -14 -28 -7 1 -10 -6 -7 -18 4 -12 1 -19 -7 -17
-6 2 -17 -4 -23 -13 -8 -13 -7 -21 6 -34 16 -16 14 -41 -2 -30 -5 2 -8 -16 -8
-40 0 -25 -6 -51 -13 -60 -7 -8 -10 -24 -7 -35 3 -11 1 -21 -4 -21 -5 -1 -13
-2 -18 -3 -18 -2 -22 -15 -12 -34 9 -17 8 -22 -8 -27 -17 -5 -27 -45 -11 -43
34 3 40 -3 28 -24 -11 -20 -13 -21 -16 -5 -3 14 -7 16 -18 6 -15 -12 -20 -44
-5 -35 10 6 28 -13 27 -29 -1 -12 -38 -60 -48 -63 -26 -8 -35 -15 -35 -27 0
-8 9 -15 19 -15 11 0 18 -8 19 -20 1 -11 2 -26 3 -32 1 -7 -3 -20 -9 -28 -6
-8 -12 -28 -13 -44 -1 -16 -6 -34 -12 -41 -5 -6 -7 -15 -4 -18 4 -3 -4 -9 -18
-12 -14 -4 -24 -14 -25 -26 -1 -15 3 -19 18 -14 23 8 26 -16 4 -35 -8 -7 -15
-9 -15 -6 0 4 -6 1 -13 -6 -15 -13 -18 -38 -6 -38 4 0 11 5 14 10 4 6 11 8 16
4 6 -4 5 -14 -4 -27 -8 -12 -13 -30 -12 -39 2 -10 -6 -19 -19 -22 -18 -4 -22
-12 -21 -41 0 -20 5 -39 11 -43 13 -9 11 -72 -4 -80 -6 -4 -9 -21 -8 -37 3
-22 -4 -36 -27 -58 -34 -32 -42 -53 -22 -61 13 -5 9 -46 -4 -46 -4 0 -7 -29
-6 -65 1 -46 -2 -65 -11 -65 -15 0 -12 -23 6 -45 12 -15 12 -19 -1 -29 -15
-11 -22 -89 -7 -80 8 5 10 1 12 -43 1 -16 6 -35 11 -43 5 -8 10 -19 11 -25 0
-5 2 -16 2 -22 1 -7 8 -13 16 -13 8 0 18 -9 21 -20 3 -11 10 -20 15 -20 5 0 7
-7 4 -15 -4 -8 1 -17 10 -21 9 -3 13 -10 10 -15 -3 -5 2 -9 10 -9 9 0 16 -5
16 -10 0 -6 6 -10 12 -9 33 4 47 -2 42 -16 -4 -8 -1 -15 5 -15 6 0 11 -6 11
-13 0 -7 18 -24 40 -37 22 -14 40 -31 40 -37 0 -7 4 -13 9 -13 5 0 28 -16 51
-35 23 -19 46 -32 51 -29 5 3 9 -2 9 -11 0 -9 4 -14 9 -11 5 3 12 -1 15 -9 3
-8 9 -14 13 -13 12 2 63 -24 63 -33 0 -4 9 -6 20 -4 13 3 20 -2 20 -12 0 -10
6 -13 17 -9 9 4 20 1 24 -6 5 -7 23 -13 41 -14 60 -2 69 -4 64 -12 -6 -11 147
-8 164 3 8 5 32 10 53 11 55 2 59 3 52 14 -4 6 5 10 19 10 14 0 26 5 26 11 0
5 8 9 18 8 32 -3 43 1 36 13 -5 7 0 9 14 6 13 -4 23 0 26 9 3 8 10 12 15 9 5
-3 14 1 21 9 8 9 21 13 31 10 12 -4 21 -1 25 9 3 9 10 13 15 10 5 -3 9 3 9 12
0 10 3 14 7 11 3 -4 17 0 30 8 13 9 23 12 23 9 0 -4 8 0 18 9 10 10 21 15 23
12 3 -2 22 14 43 35 21 22 43 40 48 40 5 0 7 4 3 10 -3 5 11 18 32 30 56 30
73 41 111 77 20 18 39 30 44 27 4 -3 8 0 8 5 0 6 7 11 15 11 8 0 15 5 15 11 0
19 58 69 80 69 11 0 31 11 44 25 13 13 26 22 29 18 4 -3 39 26 78 65 38 40 76
72 82 72 7 0 19 9 27 20 8 11 22 20 32 20 10 0 18 5 18 11 0 5 4 8 9 4 5 -3
17 2 25 11 9 8 16 13 16 9 0 -3 11 2 26 11 14 9 23 22 20 29 -5 14 29 46 46
42 11 -2 13 2 17 34 0 6 8 8 16 5 9 -3 18 1 22 9 3 9 13 14 22 13 10 -2 16 4
16 17 0 11 5 20 10 20 6 1 20 6 31 13 12 6 24 9 26 6 3 -3 9 7 12 21 4 15 12
25 19 22 28 -9 47 36 38 95 -1 3 -15 5 -33 3 -17 -3 -38 1 -46 8 -17 14 -242
18 -242 4 0 -4 -4 -5 -10 -2 -5 3 -10 2 -10 -3 0 -5 -15 -8 -32 -6 -18 1 -42
-4 -54 -11 -12 -8 -33 -12 -47 -11 -15 2 -31 -2 -37 -9 -6 -7 -24 -11 -41 -10
-17 2 -33 -3 -35 -10 -3 -7 -18 -11 -35 -10 -19 2 -29 -2 -29 -11 0 -8 -10
-12 -27 -11 -19 1 -28 -4 -32 -18 -4 -11 -13 -21 -21 -23 -8 -2 -17 -8 -18
-13 -2 -5 -8 -6 -14 -3 -6 4 -14 1 -18 -6 -4 -7 -25 -13 -46 -14 -23 -1 -40
-6 -40 -14 -1 -6 -2 -16 -3 -21 0 -4 -9 -8 -18 -8 -35 0 -44 -3 -38 -13 9 -14
-21 -41 -47 -43 -13 -1 -29 -7 -36 -14 -8 -7 -18 -11 -23 -8 -8 6 -13 -8 -10
-27 1 -7 -31 -12 -51 -9 -5 0 -8 -6 -8 -14 0 -8 -3 -14 -7 -14 -20 3 -34 -2
-29 -10 8 -12 -19 -33 -30 -23 -5 4 -6 3 -2 -2 4 -4 2 -14 -5 -20 -11 -10 -65
-39 -77 -40 -3 -1 -19 -15 -36 -32 -16 -17 -35 -29 -42 -26 -7 2 -12 -1 -12
-7 0 -6 -9 -11 -20 -11 -10 0 -24 -9 -30 -20 -6 -11 -20 -20 -30 -20 -11 0
-20 -4 -20 -10 0 -5 -9 -10 -20 -10 -11 0 -20 -4 -20 -9 0 -5 -9 -11 -20 -14
-11 -3 -19 -11 -18 -18 2 -7 -11 -14 -32 -16 -44 -5 -90 -25 -84 -35 3 -4 -2
-8 -10 -8 -9 0 -16 -4 -16 -10 0 -5 -3 -9 -7 -8 -5 1 -24 -7 -43 -17 -19 -11
-54 -20 -77 -21 -45 -2 -46 -1 -45 51 0 11 -4 23 -10 26 -12 8 -15 109 -2 117
5 4 11 31 12 61 1 30 6 57 11 60 5 3 8 34 8 69 0 35 4 67 10 70 6 4 10 35 9
69 -1 40 3 64 11 67 7 3 11 22 9 50 -1 27 2 47 9 50 7 2 11 24 11 50 -1 27 4
48 11 50 8 3 11 25 10 61 -2 31 2 64 9 73 6 9 10 33 9 52 0 19 5 43 13 52 8 9
11 22 7 27 -3 6 0 11 9 11 8 0 13 7 11 18 -1 9 4 28 12 41 8 13 10 20 4 17 -6
-4 -11 -1 -11 8 0 8 5 18 10 21 6 3 8 17 6 31 -3 13 1 30 7 36 7 7 13 33 14
57 0 24 5 46 10 50 5 3 9 25 8 48 -2 26 2 44 10 47 7 2 11 18 10 39 -2 22 2
37 10 41 8 3 12 17 10 39 -3 24 1 37 10 41 8 3 12 14 10 25 -2 12 2 26 8 33 7
7 12 31 12 53 -1 22 4 46 11 52 7 7 11 30 9 52 -2 25 2 41 9 44 7 3 12 20 11
41 -1 19 3 37 9 39 7 3 12 24 11 48 -1 24 4 49 11 56 6 7 10 26 9 42 -1 16 3
32 10 34 7 3 10 21 8 46 -2 28 1 43 10 47 8 3 13 15 12 27 -1 12 2 28 8 35 6
8 11 26 12 40 1 15 5 36 10 46 4 10 9 28 9 40 1 12 5 27 10 35 13 20 13 55 1
63 -6 5 -3 8 6 8 9 0 19 9 22 20 3 11 1 20 -4 20 -6 0 -5 8 1 20 6 11 8 20 4
20 -3 0 -2 6 4 13 6 7 12 29 14 48 1 19 6 37 11 40 5 4 9 20 9 35 0 16 7 41
14 57 8 15 12 27 9 27 -3 0 0 10 6 22 7 12 12 35 11 50 0 20 4 28 16 28 10 0
13 3 7 8 -14 10 -13 55 1 67 15 13 25 55 13 55 -5 0 -2 12 8 26 9 15 16 40 15
56 -2 18 2 27 8 23 6 -4 9 3 6 17 -2 13 1 29 6 36 6 6 7 12 3 12 -4 0 -2 7 5
15 7 8 10 22 6 30 -3 9 1 18 10 22 8 3 13 11 10 18 -2 6 0 18 4 26 5 7 5 16 0
19 -5 3 -4 16 3 30 7 14 14 43 15 65 2 21 8 45 14 52 6 7 7 13 3 13 -4 0 -2 7
5 15 7 8 10 15 6 15 -3 0 5 20 19 44 13 24 21 46 18 50 -10 10 -9 60 1 81 5
11 11 40 12 64 2 24 7 47 11 50 5 3 8 13 8 21 -1 8 5 25 13 37 8 13 12 30 8
38 -3 9 1 18 8 21 8 3 13 13 12 22 -2 9 3 26 10 37 7 11 11 34 9 50 -1 17 2
36 8 44 15 18 17 169 3 184 -6 7 -11 28 -10 47 1 37 -12 64 -27 54 -5 -3 -12
2 -15 10 -3 9 -10 14 -14 11 -4 -2 -18 4 -30 15 -25 22 -45 26 -55 11 -3 -5
-17 1 -32 15 -15 14 -29 20 -33 15 -3 -6 -11 -6 -19 -1 -8 4 -25 4 -38 -1 -13
-5 -22 -5 -19 -1 3 4 -8 13 -24 19 -22 8 -29 8 -27 0z"/>
<path d="M4108 4459 c-2 -5 -24 -11 -48 -13 -43 -2 -79 -13 -90 -25 -12 -14
-51 -31 -70 -31 -22 0 -82 -58 -74 -71 2 -4 -1 -9 -8 -11 -17 -6 -19 -38 -2
-38 8 0 14 -3 14 -8 0 -4 13 -13 28 -20 25 -11 29 -17 27 -52 -1 -26 2 -40 11
-40 14 0 13 -16 -4 -47 -10 -18 -9 -30 2 -63 14 -40 13 -41 -10 -50 -28 -11
-29 -14 -8 -34 8 -9 11 -16 5 -16 -6 0 -11 -7 -11 -15 0 -8 5 -15 10 -15 14 0
13 -16 -2 -32 -8 -8 -13 -40 -13 -83 1 -38 -4 -75 -10 -81 -15 -16 -10 -134 6
-145 11 -6 10 -9 -4 -15 -17 -6 -17 -8 -1 -31 9 -14 11 -22 5 -19 -6 4 -11 2
-11 -4 0 -6 -4 -9 -9 -6 -20 12 -37 -5 -36 -37 1 -21 -6 -38 -20 -49 -16 -13
-18 -19 -7 -29 6 -7 12 -21 12 -31 0 -10 -6 -21 -12 -23 -8 -3 -13 -23 -12
-53 1 -26 -3 -50 -8 -53 -5 -3 -10 -27 -11 -52 -1 -34 -6 -48 -18 -52 -18 -6
-33 -55 -15 -52 13 3 17 -44 4 -60 -6 -7 -10 -31 -10 -53 1 -23 -5 -43 -11
-46 -7 -2 -11 -22 -10 -49 1 -26 -3 -45 -9 -45 -6 0 -8 -13 -6 -30 3 -20 0
-30 -9 -30 -7 0 -13 -9 -13 -20 0 -11 -4 -20 -10 -20 -18 0 -11 -48 7 -52 16
-3 16 -4 0 -20 -9 -9 -17 -24 -17 -32 0 -9 -4 -16 -10 -16 -5 0 -10 -9 -10
-20 0 -11 5 -20 10 -20 13 0 13 -37 -1 -42 -6 -2 -10 -29 -10 -61 0 -31 -4
-57 -9 -57 -18 0 -31 -71 -15 -83 7 -6 6 -10 -2 -14 -7 -2 -13 -18 -13 -33 0
-16 -6 -41 -12 -56 -10 -22 -10 -28 0 -32 6 -2 12 -13 12 -25 -1 -27 -24 -60
-35 -49 -4 4 -5 -5 -3 -21 3 -15 2 -30 -3 -32 -4 -3 -4 -18 1 -34 4 -16 6 -32
2 -35 -3 -3 0 -6 6 -6 6 0 12 -28 14 -70 2 -40 -1 -70 -7 -70 -5 0 -4 -5 2
-11 15 -15 -5 -49 -24 -42 -17 7 -19 -148 -2 -179 11 -20 16 -138 7 -154 -6
-11 48 -64 56 -56 3 3 6 -2 6 -12 0 -9 6 -16 13 -14 6 2 12 -2 12 -7 0 -6 -5
-9 -12 -7 -7 2 -13 -2 -13 -8 0 -12 -24 -40 -34 -40 -3 0 -6 7 -6 15 0 8 -4
15 -10 15 -5 0 -10 7 -10 15 0 8 -9 15 -20 15 -13 0 -20 6 -18 14 2 8 -10 27
-27 44 -27 28 -31 29 -52 15 -20 -14 -23 -14 -23 0 0 10 -6 13 -19 10 -21 -5
-25 -47 -6 -63 7 -6 11 -20 8 -30 -3 -11 0 -20 6 -20 6 0 11 -7 11 -16 0 -8 5
-12 10 -9 6 3 10 -2 10 -11 0 -10 3 -14 6 -11 7 6 54 -41 54 -54 0 -9 51 -30
60 -24 4 3 13 -1 19 -9 6 -7 25 -12 42 -11 17 1 33 -3 35 -10 3 -6 19 -11 37
-10 18 0 42 -6 55 -13 19 -12 25 -12 45 0 12 8 38 14 57 13 19 0 38 3 41 8 4
5 27 10 52 11 25 2 52 8 60 14 8 7 17 9 20 5 4 -3 14 0 22 7 9 7 27 14 41 14
14 1 29 8 34 16 6 8 10 11 10 6 0 -5 9 -1 20 9 11 10 20 15 20 11 0 -3 11 1
25 10 14 9 22 20 20 25 -3 4 4 6 15 4 14 -3 20 1 20 16 0 12 7 19 19 19 10 0
22 7 25 16 3 8 10 13 15 10 5 -4 32 16 59 44 27 27 55 50 61 50 6 0 8 8 4 17
-3 10 -2 15 2 11 5 -5 15 1 23 13 8 11 20 18 27 15 7 -2 21 5 32 16 12 14 13
19 3 13 -11 -6 -10 -3 3 12 9 11 15 23 12 26 -3 4 -3 5 0 3 9 -6 76 64 71 73
-3 5 5 17 19 27 13 10 21 22 19 26 -3 5 11 25 30 44 20 20 34 39 31 43 -2 5
10 21 28 37 18 16 33 36 35 44 2 8 13 25 24 38 12 12 17 22 12 22 -5 0 3 11
18 24 15 12 24 26 21 30 -4 4 -3 10 2 14 11 7 38 64 35 71 -1 2 2 7 7 10 13
10 33 49 33 66 0 8 3 15 8 15 11 0 32 50 32 76 0 12 5 24 10 26 6 2 12 14 12
28 1 14 5 27 9 30 4 3 9 16 10 30 2 14 7 27 11 30 3 3 7 25 9 50 2 25 7 48 12
51 14 10 11 291 -4 299 -6 5 -10 19 -7 34 3 15 0 31 -8 37 -8 6 -12 15 -9 19
3 4 -2 13 -10 20 -8 7 -15 20 -15 29 0 9 -9 22 -20 29 -11 7 -20 20 -21 30 -1
19 -63 75 -85 75 -8 0 -12 3 -9 5 11 12 -43 36 -75 35 -22 -1 -39 4 -47 14 -7
9 -13 14 -13 10 0 -4 -14 -1 -30 8 -22 11 -35 13 -49 6 -10 -6 -20 -8 -23 -6
-10 10 -114 11 -126 2 -7 -6 -23 -11 -36 -11 -13 -1 -31 -8 -40 -15 -9 -7 -25
-11 -35 -8 -11 3 -29 -2 -41 -10 -11 -8 -26 -12 -33 -10 -6 2 -20 -2 -29 -10
-21 -18 -38 -9 -33 17 2 11 -1 20 -7 20 -7 0 -6 6 2 15 7 8 10 15 6 15 -4 0 0
12 7 28 8 15 12 33 10 40 -3 7 3 22 13 33 9 10 12 19 6 19 -8 0 -9 20 -2 40 1
3 2 9 1 14 -1 4 3 14 8 20 6 7 11 28 13 47 1 19 6 37 11 40 5 4 10 26 10 50 0
24 4 46 7 49 10 8 19 90 10 90 -4 0 -6 9 -3 20 3 11 10 20 15 20 5 0 7 4 3 9
-3 5 -1 12 5 16 7 4 7 12 0 26 -8 13 -7 19 0 19 6 0 8 5 5 10 -4 6 0 21 8 34
10 15 12 27 5 39 -6 12 -5 17 3 17 9 0 9 3 0 14 -8 10 -9 16 -1 21 7 4 7 12 0
26 -6 11 -7 19 -1 19 5 0 6 14 1 35 -4 20 -4 38 1 41 5 3 5 13 -1 25 -6 11 -7
19 -1 19 5 0 6 14 1 35 -4 20 -4 38 1 41 5 3 5 13 -1 25 -6 10 -7 19 -3 19 4
0 6 25 5 55 -2 30 -8 55 -14 55 -6 0 -8 9 -5 20 3 11 -1 27 -10 35 -8 8 -13
23 -11 33 4 26 -23 74 -38 68 -7 -3 -15 2 -18 11 -4 9 -13 13 -21 9 -9 -3 -18
0 -21 7 -2 7 -17 14 -32 15 -15 1 -28 7 -30 12 -5 13 -29 13 -34 -1z m448
-1504 c17 -16 38 -58 39 -80 1 -11 6 -31 11 -45 12 -35 12 -74 0 -82 -6 -4
-10 -33 -9 -65 0 -32 -3 -63 -8 -69 -16 -20 -17 -73 -1 -86 13 -11 11 -13 -9
-18 -15 -4 -23 -13 -21 -22 1 -9 -4 -18 -12 -21 -15 -6 -12 -70 4 -75 6 -2 10
-8 10 -13 0 -6 -4 -7 -10 -4 -5 3 -10 2 -10 -4 0 -5 -12 -16 -27 -23 -16 -8
-27 -21 -27 -31 1 -9 -2 -17 -8 -17 -5 0 -6 -5 -3 -11 4 -6 -1 -16 -10 -23
-15 -11 -16 -14 -2 -27 16 -17 4 -41 -23 -47 -15 -3 -23 -15 -20 -28 1 -4 -4
-11 -12 -16 -9 -7 -10 -11 -1 -14 20 -8 -13 -59 -39 -59 -12 0 -23 -5 -25 -12
-3 -8 3 -11 16 -8 14 2 21 -1 21 -11 0 -8 5 -14 12 -14 6 0 9 -2 7 -5 -3 -2
-19 -1 -36 4 -25 7 -35 6 -47 -8 -17 -19 -22 -56 -6 -46 14 9 12 -11 -3 -23
-6 -6 -19 -12 -27 -14 -34 -7 -49 -68 -17 -68 6 0 8 -3 5 -6 -4 -3 -15 -1 -26
5 -17 9 -22 8 -27 -9 -4 -11 -10 -18 -15 -15 -5 3 -11 -4 -15 -15 -4 -11 -11
-17 -17 -14 -6 4 -9 1 -6 -7 3 -8 -6 -31 -19 -52 -13 -21 -21 -42 -18 -47 4
-6 2 -10 -4 -10 -5 0 -13 5 -16 10 -11 17 -24 11 -20 -10 3 -15 -2 -20 -20
-20 -16 0 -22 -5 -21 -17 2 -10 -12 -30 -32 -45 -26 -21 -31 -29 -19 -34 8 -3
14 -12 13 -19 -3 -24 -12 -26 -27 -9 -17 20 -21 288 -5 319 6 11 11 51 11 88
1 38 5 71 10 75 6 4 10 31 11 61 1 29 5 56 11 60 5 3 9 23 8 45 -1 21 4 43 10
50 6 6 10 25 9 41 -1 17 3 33 9 37 6 4 12 31 12 62 1 30 6 61 12 68 5 7 9 25
8 40 -1 19 4 29 17 34 10 3 16 10 13 15 -4 5 -1 9 5 9 6 0 9 4 6 8 -3 5 5 20
17 33 12 13 21 27 19 31 -1 5 2 8 8 8 6 0 10 6 10 13 0 7 11 20 24 31 16 11
22 24 19 34 -4 10 -2 13 5 8 7 -4 12 -1 12 9 0 9 5 13 10 10 6 -3 10 1 10 10
0 9 5 13 10 10 6 -3 10 1 10 10 0 9 4 14 8 11 5 -3 15 6 22 19 7 13 17 22 22
19 4 -3 8 0 8 6 0 12 59 67 75 70 6 1 18 9 28 17 9 9 17 12 17 7 0 -5 6 -2 13
7 14 19 48 38 62 36 5 -1 15 -7 21 -12z m-851 -215 c3 -5 1 -10 -4 -10 -6 0
-11 5 -11 10 0 6 2 10 4 10 3 0 8 -4 11 -10z m835 -414 c0 -3 -4 -8 -10 -11
-5 -3 -10 -1 -10 4 0 6 5 11 10 11 6 0 10 -2 10 -4z m-365 -556 c3 -5 1 -10
-4 -10 -6 0 -11 5 -11 10 0 6 2 10 4 10 3 0 8 -4 11 -10z"/>
<path d="M2568 3469 c-28 -11 -48 -14 -48 -8 0 6 -6 7 -12 2 -7 -4 -29 -8 -48
-8 -24 0 -35 -5 -35 -15 0 -8 -9 -18 -20 -21 -11 -3 -19 -11 -17 -18 1 -7 -7
-15 -18 -18 -11 -3 -20 -14 -20 -24 0 -11 -3 -18 -7 -18 -22 4 -31 -3 -37 -26
-4 -14 -11 -23 -16 -20 -5 3 -11 -4 -15 -15 -3 -11 -14 -20 -22 -20 -9 0 -14
-3 -10 -6 8 -8 -18 -34 -33 -34 -6 0 -9 -3 -7 -7 4 -9 -70 -82 -77 -76 -2 3
-7 -5 -11 -16 -3 -12 -13 -21 -21 -21 -8 0 -12 -4 -9 -10 3 -5 1 -10 -4 -10
-6 0 -11 -6 -11 -13 0 -8 -15 -29 -33 -48 -26 -26 -32 -40 -27 -55 8 -20 -21
-69 -34 -57 -3 4 -6 -6 -6 -20 0 -15 -4 -27 -9 -27 -5 0 -12 -11 -15 -25 -4
-14 -11 -23 -15 -20 -5 3 -12 -9 -16 -26 -4 -17 -9 -28 -13 -25 -9 10 -34 -33
-26 -46 4 -7 3 -8 -4 -4 -7 4 -13 2 -13 -3 -3 -26 -4 -30 -11 -37 -4 -3 -18
-7 -30 -8 -16 -1 -23 -7 -23 -21 0 -12 6 -19 15 -17 11 3 10 -2 -4 -17 -11
-12 -15 -21 -10 -21 5 0 2 -6 -6 -13 -8 -7 -17 -23 -18 -37 -2 -14 -7 -29 -12
-35 -4 -5 -6 -18 -5 -28 2 -10 -3 -21 -11 -24 -8 -3 -12 -8 -9 -12 8 -13 -25
-51 -45 -51 -12 0 -17 -6 -15 -17 1 -10 10 -17 19 -17 22 2 20 -19 -4 -36 -11
-8 -20 -21 -20 -30 0 -12 -2 -13 -9 -1 -7 11 -11 10 -19 -6 -8 -14 -8 -23 0
-31 7 -7 4 -17 -10 -33 -12 -12 -19 -26 -16 -31 3 -4 -1 -11 -9 -13 -16 -7
-17 -73 -1 -83 15 -10 13 -41 -2 -35 -14 5 -38 -32 -30 -46 3 -5 -2 -12 -12
-16 -16 -6 -16 -7 1 -16 15 -9 16 -13 5 -26 -17 -20 -18 -200 -2 -214 7 -6 11
-21 9 -34 -1 -14 2 -22 6 -19 5 3 9 -1 9 -9 0 -8 7 -17 15 -21 8 -3 15 -9 14
-13 -4 -21 2 -33 13 -27 8 5 9 2 5 -9 -4 -11 1 -22 13 -29 11 -7 20 -17 20
-23 0 -5 13 -19 30 -30 16 -11 35 -30 41 -42 7 -13 18 -23 25 -23 7 0 16 -5
20 -12 5 -7 2 -9 -7 -3 -8 4 0 -4 16 -19 17 -14 35 -23 42 -21 7 2 18 -1 25
-8 7 -7 20 -12 28 -12 8 1 24 -3 35 -9 28 -15 157 -14 173 1 7 7 19 10 27 7 8
-3 20 -2 27 2 7 5 19 9 27 11 7 1 25 13 40 26 14 13 31 23 37 21 6 -3 16 7 23
20 8 13 19 23 25 20 11 -4 38 20 109 95 21 23 40 41 43 41 5 0 44 39 44 44 0
8 72 76 81 76 4 0 6 6 3 13 -2 7 6 23 20 36 15 14 22 29 19 39 -4 9 -2 13 4 9
5 -3 16 6 24 21 8 15 16 29 19 32 14 14 30 52 30 72 0 12 3 19 6 15 10 -10 42
36 36 52 -3 9 -1 12 6 7 6 -3 13 3 17 14 4 11 11 18 16 15 5 -3 6 0 4 7 -3 8
5 24 19 37 15 14 22 29 19 39 -5 11 -3 13 7 7 10 -6 12 -4 7 8 -3 9 -2 19 4
22 5 4 8 9 5 13 -5 10 27 65 41 69 8 3 11 -50 10 -186 -1 -120 2 -193 8 -195
6 -3 6 -5 0 -5 -13 -1 -10 -116 5 -151 6 -14 9 -44 8 -65 -2 -23 4 -55 13 -75
12 -24 14 -40 8 -52 -7 -13 -6 -18 4 -18 10 0 14 -14 13 -48 0 -26 4 -54 9
-62 5 -8 11 -23 12 -33 5 -31 23 -58 35 -51 8 5 9 1 5 -10 -4 -10 2 -25 16
-39 12 -12 22 -28 22 -37 0 -8 5 -14 12 -13 6 2 15 -6 18 -17 6 -18 11 -21 30
-20 3 1 13 -6 22 -15 8 -9 22 -14 29 -11 8 3 13 2 13 -2 -5 -30 3 -40 25 -36
14 2 26 -1 29 -10 6 -15 95 -15 106 1 3 5 15 9 26 8 25 0 34 20 25 59 -4 22
-17 37 -44 52 -21 12 -32 24 -25 26 17 6 20 35 4 42 -9 3 -12 30 -11 100 1 52
-2 92 -6 90 -11 -7 -11 -22 -12 321 -2 207 1 314 8 321 7 7 11 79 10 204 -1
125 3 200 10 214 6 12 10 55 10 95 -1 46 2 74 10 77 8 3 11 55 10 172 -1 97 3
172 9 180 5 7 10 62 11 123 l1 110 -32 16 c-18 8 -33 21 -33 28 0 10 -8 11
-30 5 -19 -5 -30 -5 -30 1 0 6 -4 7 -10 4 -5 -3 -10 -1 -10 5 0 7 -16 11 -43
9 -24 -2 -48 1 -55 5 -7 4 -12 3 -12 -2 0 -5 -11 -7 -24 -5 -13 3 -35 -2 -49
-11 -24 -16 -26 -16 -78 34 -30 29 -58 52 -64 53 -5 1 -16 8 -24 15 -7 7 -23
12 -35 10 -11 -1 -27 1 -33 5 -7 5 -13 4 -13 -1 0 -9 -51 -7 -77 2 -6 3 -14 2
-17 -2 -9 -8 -80 -9 -86 -1 -3 4 -26 -2 -52 -12z m256 -187 c11 -2 15 1 11 8
-10 16 18 8 33 -10 10 -11 15 -12 18 -3 3 7 12 9 20 6 9 -3 14 1 14 13 0 23 9
13 15 -16 2 -12 -3 -33 -12 -46 -11 -18 -12 -24 -3 -24 9 0 8 -6 -3 -18 -10
-10 -17 -28 -17 -39 0 -11 -7 -26 -15 -33 -11 -9 -12 -17 -4 -31 8 -15 6 -19
-7 -19 -10 0 -14 -5 -11 -14 3 -8 -1 -17 -10 -20 -9 -4 -13 -13 -9 -21 3 -9
-1 -18 -9 -22 -9 -3 -15 -10 -14 -17 4 -29 -2 -57 -10 -51 -5 3 -12 1 -16 -5
-3 -5 -2 -10 4 -10 6 0 1 -16 -10 -35 -12 -19 -25 -35 -29 -35 -5 0 -12 -9
-15 -20 -4 -11 -11 -17 -17 -14 -5 3 -8 -2 -7 -12 4 -26 -10 -64 -23 -64 -6 0
-9 -3 -5 -6 3 -3 -3 -16 -14 -27 -11 -12 -17 -27 -15 -33 3 -7 -2 -15 -10 -18
-8 -3 -14 -10 -14 -17 0 -17 -36 -59 -44 -51 -4 3 -4 -1 0 -11 3 -10 1 -17 -6
-17 -6 0 -9 -4 -5 -9 3 -5 -2 -17 -11 -25 -8 -9 -12 -16 -8 -16 3 0 1 -6 -5
-13 -6 -8 -8 -17 -4 -20 3 -4 2 -7 -4 -7 -14 0 -47 -32 -51 -50 -2 -8 -9 -18
-15 -22 -7 -4 -8 -8 -4 -8 4 0 2 -10 -5 -22 -7 -13 -12 -27 -13 -33 0 -5 -7
-10 -15 -10 -8 0 -20 -15 -26 -34 -6 -19 -18 -39 -26 -45 -8 -6 -14 -19 -12
-28 1 -10 -2 -18 -8 -18 -14 0 -38 -26 -31 -34 3 -3 -6 -17 -21 -31 -15 -14
-24 -30 -21 -35 3 -6 2 -10 -2 -10 -5 0 -19 -18 -33 -40 -14 -22 -28 -40 -32
-40 -5 0 -8 -8 -8 -19 0 -10 -9 -25 -21 -32 -11 -8 -21 -22 -23 -31 -1 -9 -14
-29 -29 -44 -15 -15 -27 -31 -27 -36 0 -16 -133 -143 -147 -140 -7 2 -13 -2
-13 -8 0 -6 -4 -9 -9 -5 -12 7 -11 175 1 175 4 0 8 11 8 24 0 14 5 28 10 31 6
3 10 15 10 26 0 11 7 30 15 43 14 21 14 24 -1 30 -13 5 -15 9 -6 18 7 7 12 27
12 44 0 18 5 36 10 39 6 3 10 17 10 29 0 13 7 29 15 36 8 7 12 17 9 22 -8 13
16 88 28 88 4 0 8 9 8 20 0 11 5 20 11 20 5 0 8 4 5 9 -3 5 1 14 10 21 8 7 13
19 10 27 -3 7 -1 13 4 13 5 0 12 10 16 22 3 12 15 31 25 42 11 11 19 26 19 33
0 7 5 13 10 13 6 0 10 9 10 20 0 11 4 20 10 20 5 0 9 3 8 8 -3 13 26 66 46 85
11 9 16 20 13 23 -3 4 1 13 9 21 8 9 13 22 10 29 -3 8 0 13 6 11 5 -1 12 6 13
16 2 10 12 26 22 35 10 9 19 23 21 31 2 8 20 30 40 48 20 19 36 39 34 45 -1 6
13 24 33 40 19 17 32 34 29 39 -3 5 0 8 8 7 8 -2 12 4 10 15 -2 15 9 22 22 15
8 -5 105 104 103 116 -1 6 3 10 9 9 7 -1 10 6 7 17 -3 11 0 20 6 20 6 0 11 8
11 18 1 9 11 25 24 36 15 13 21 26 18 42 -3 20 2 27 29 38 32 13 34 13 44 -7
5 -12 18 -23 29 -25z"/>
<path d="M3392 1491 c1 -30 13 -38 33 -23 12 9 16 42 5 42 -5 0 -15 3 -24 6
-11 4 -15 -2 -14 -25z"/>
</g>
</svg>
